<svg xmlns="http://www.w3.org/2000/svg" version="1.1" xmlns:xlink="http://www.w3.org/1999/xlink" xmlns:svgjs="http://svgjs.dev/svgjs" width="1000" height="623" viewBox="0 0 1000 623"><g transform="matrix(1,0,0,1,-0.6060543136190404,0.2522267206477409)"><svg viewBox="0 0 396 247" data-background-color="#354f52" preserveAspectRatio="xMidYMid meet" height="623" width="1000" xmlns="http://www.w3.org/2000/svg" xmlns:xlink="http://www.w3.org/1999/xlink"><g id="tight-bounds" transform="matrix(1,0,0,1,0.23999750819314158,-0.09999999999999432)"><svg viewBox="0 0 395.52 247.2" height="247.2" width="395.52"><g><svg></svg></g><g><svg viewBox="0 0 395.52 247.2" height="247.2" width="395.52"><mask id="2b067b72-7f4f-4988-834d-7b99b2d53dfe"><rect width="640" height="400" fill="white"></rect><rect width="435.072" height="185.1133280184971" fill="black" y="31.043335990751444" x="-19.77600000000001" id="transform-me"></rect></mask><g transform="matrix(1,0,0,1,0,60.72832369942196)"><svg viewBox="0 0 395.52 125.74335260115606" height="125.74335260115606" width="395.52"><g><svg viewBox="0 0 395.52 125.74335260115606" height="125.74335260115606" width="395.52"><g><svg viewBox="0 0 395.52 125.74335260115606" height="125.74335260115606" width="395.52"><g><svg viewBox="0 0 395.52 125.74335260115606" height="125.74335260115606" width="395.52"><g id="textblocktransform"><svg viewBox="0 0 395.52 125.74335260115606" height="125.74335260115606" width="395.52" id="textblock"><g><svg viewBox="0 0 395.52 125.74335260115606" height="125.74335260115606" width="395.52"><g transform="matrix(1,0,0,1,0,0)"><svg width="395.52" viewBox="0.75 -38.5 121.0999984741211 38.5" height="125.74335260115606" data-palette-color="#ededed"><path d="M38-12.75L37.35 0 0.75 0 0.75-1.15 25.9-35.9 13.25-35.9Q9.55-35.9 7.68-34.05 5.8-32.2 5.1-28.3L5.1-28.3 3.15-28.3 3.95-38.5 36.35-38.5 36.35-37.35 11.45-2.8 25.75-2.8Q28.45-2.8 30.18-3.25 31.9-3.7 32.98-4.85 34.05-6 34.65-7.9 35.25-9.8 35.7-12.75L35.7-12.75 38-12.75ZM60.75 0L41.5 0 41.5-2Q43.2-2.05 44.22-2.3 45.25-2.55 45.82-3.15 46.4-3.75 46.6-4.85 46.8-5.95 46.8-7.7L46.8-7.7 46.8-30.8Q46.8-32.55 46.65-33.63 46.5-34.7 46.02-35.33 45.55-35.95 44.72-36.18 43.9-36.4 42.55-36.5L42.55-36.5 42.55-38.5 58.6-38.5Q66.15-38.5 70.22-36.08 74.3-33.65 74.3-29.15L74.3-29.15Q74.3-23.2 65.75-20.75L65.75-20.75 65.75-20.55Q68.5-20.55 70.72-19.78 72.95-19 74.5-17.6 76.05-16.2 76.9-14.3 77.75-12.4 77.75-10.15L77.75-10.15Q77.75-7.6 76.52-5.7 75.3-3.8 73-2.5L73-2.5Q68.55 0 60.75 0L60.75 0ZM61.1-3.05L61.1-3.05Q69.15-3.05 69.15-10.3L69.15-10.3Q69.15-14.75 66.25-16.8L66.25-16.8Q64.75-17.85 62.37-18.3 60-18.75 56.55-18.75L56.55-18.75 54.15-18.75 54.15-8.75Q54.15-5.65 55.75-4.35 57.35-3.05 61.1-3.05ZM54.15-21.75L57.1-21.75Q59.35-21.75 61-22.18 62.65-22.6 63.8-23.4L63.8-23.4Q66.2-25.05 66.2-28.55L66.2-28.55Q66.2-32.2 64.4-33.83 62.6-35.45 58.6-35.45L58.6-35.45 55.05-35.45Q54.15-35.45 54.15-34.6L54.15-34.6 54.15-21.75ZM94.05-14.65L94.05-8.05Q94.05-6.15 94.22-5 94.4-3.85 94.9-3.2 95.4-2.55 96.32-2.3 97.25-2.05 98.8-2L98.8-2 98.8 0 81.45 0 81.45-2Q83.1-2.05 84.15-2.3 85.2-2.55 85.75-3.15 86.3-3.75 86.5-4.85 86.7-5.95 86.7-7.7L86.7-7.7 86.7-30.8Q86.7-32.5 86.52-33.6 86.35-34.7 85.85-35.3 85.35-35.9 84.42-36.15 83.5-36.4 82-36.5L82-36.5 82-38.5 99.25-38.5 99.25-36.5Q97.55-36.45 96.52-36.2 95.5-35.95 94.95-35.3 94.4-34.65 94.22-33.5 94.05-32.35 94.05-30.45L94.05-30.45 94.05-19.35 107-33.25Q108.15-34.5 108.15-35.35L108.15-35.35Q108.15-35.9 107.42-36.2 106.7-36.5 104.75-36.5L104.75-36.5 104.75-38.5 118.4-38.5 118.4-36.55Q117.3-36.5 116.47-36.35 115.65-36.2 114.82-35.7 114-35.2 112.97-34.27 111.95-33.35 110.45-31.8L110.45-31.8 101.55-22.5 116.25-4.6Q117.3-3.3 118.57-2.7 119.85-2.1 121.85-2L121.85-2 121.85 0 103.35 0 103.35-2Q105.4-2.05 106.3-2.35 107.2-2.65 107.2-3.35L107.2-3.35Q107.2-3.6 107.12-3.83 107.05-4.05 106.87-4.38 106.7-4.7 106.35-5.18 106-5.65 105.4-6.35L105.4-6.35 96.55-17.25 94.05-14.65Z" opacity="1" transform="matrix(1,0,0,1,0,0)" fill="#ededed" class="wordmark-text-0" data-fill-palette-color="primary" id="text-0"></path></svg></g></svg></g></svg></g></svg></g></svg></g></svg></g></svg></g><g mask="url(#2b067b72-7f4f-4988-834d-7b99b2d53dfe)"><g transform="matrix(3.5418641890219456, 0, 0, 3.5418641890219456, 40.678315110192926, 1)"><svg xmlns="http://www.w3.org/2000/svg" xmlns:xlink="http://www.w3.org/1999/xlink" version="1.1" x="0" y="0" viewBox="5.599993705749512 14.800000190734863 88.70000457763672 69.22908020019531" enable-background="new 0 0 100 100" xml:space="preserve" height="69.22908020019531" width="88.70000457763672" class="icon-none" data-fill-palette-color="accent" id="none"><g fill="#a5c6ca" data-fill-palette-color="accent"><path d="M50.2 84c-6.7 0-13.4 0-20.1 0-0.2 0-0.4 0-0.7 0-0.5-0.1-1.4 0.4-1.4-0.7 0-0.9 0.8-0.6 1.3-0.6 0.6-0.1 1.2 0 1.8 0 3.9 0 5.7-1.3 6.9-5 0.3-0.8 0.5-1.7 0.5-2.6 0-0.8 0.4-1.2 1.2-1.2 7.2 0 14.5 0 21.7 0 0.7 0 1 0.3 1.1 0.9 0.3 1.7 0.6 3.3 1.5 4.9 1 1.9 2.6 2.8 4.7 2.9 1 0 1.9 0 2.9 0 0.5 0 0.9 0 0.9 0.7 0 0.6-0.4 0.7-0.9 0.7-0.8 0-1.6 0-2.4 0C62.9 84 56.6 84 50.2 84z" fill="#a5c6ca" data-fill-palette-color="accent"></path><path d="M49.9 14.8c13.9 0 27.9 0 41.8 0 2 0 2.6 0.6 2.6 2.6 0 17.5 0 35 0 52.5 0 2.2-0.6 2.8-2.8 2.8-27.7 0-55.4 0-83.1 0-2.2 0-2.8-0.6-2.8-2.8 0-17.5 0-35 0-52.5 0-2.2 0.4-2.6 2.6-2.6C22.1 14.8 36 14.8 49.9 14.8zM49.7 19c-12.9 0-25.9 0-38.8 0-1.2 0-1.6 0.3-1.6 1.6 0 13.3 0 26.6 0 39.9 0 1.3 0.4 1.6 1.6 1.6 25.8 0 51.6 0 77.3 0 1.2 0 1.6-0.3 1.6-1.6 0-13.3 0-26.6 0-39.9 0-1.3-0.4-1.6-1.6-1.6C75.4 19 62.5 19 49.7 19z" fill="#a5c6ca" data-fill-palette-color="accent"></path><path d="M46.3 53.5c-2.4 0-2.4 0-1.8-2.4 2.1-7.3 4.2-14.5 6.3-21.8 0.3-1 0.6-1.4 1.8-1.4C56 28 56 28 55 31.3c-2 6.7-3.9 13.4-5.9 20.1C48.5 53.5 48.5 53.5 46.3 53.5z" fill="#a5c6ca" data-fill-palette-color="accent"></path><path d="M34.7 41c2.3 0.9 4.5 1.9 6.8 2.7 1.1 0.4 1.6 0.9 1.5 2.1-0.1 2.6 0 2.6-2.4 1.6-3.4-1.4-6.8-2.8-10.2-4.2-1.9-0.8-1.9-0.8-1.9-2.8 0-0.7 0.2-1.1 0.9-1.4 4.2-1.7 8.4-3.5 12.6-5.2 0.7-0.3 0.9-0.2 1 0.6 0.2 3 0.2 3-2.5 4.1-1.9 0.7-3.7 1.5-5.6 2.3C34.8 40.7 34.8 40.8 34.7 41z" fill="#a5c6ca" data-fill-palette-color="accent"></path><path d="M65.3 40.9c-2.1-0.9-4-1.7-5.8-2.4-0.1 0-0.2 0-0.3-0.1-2.2-0.9-2.8-2-2.3-4.4 0.2-0.8 0.5-0.4 0.9-0.2 2.5 1 5 2.1 7.5 3.1 1.6 0.7 3.2 1.4 4.8 2 1.2 0.4 0.9 1.4 1 2.2 0.1 0.8-0.1 1.3-1 1.7-4 1.6-7.9 3.3-11.9 4.9-1.3 0.6-1.2 0.5-1.4-0.9-0.2-1.8 0.3-2.9 2.2-3.4C61.1 42.8 63 41.9 65.3 40.9z" fill="#a5c6ca" data-fill-palette-color="accent"></path></g></svg></g></g></svg></g><defs></defs></svg><rect width="395.52" height="247.2" fill="none" stroke="none" visibility="hidden"></rect></g></svg></g></svg>